<svg xmlns="http://www.w3.org/2000/svg" enable-background="new 0 0 66 66" viewBox="0 0 66 66" id="train-travel">
  <rect width="16.3" height="20.8" x="33" y="10.6" fill="#FAD22C" transform="rotate(-89.955 41.155 20.954)"></rect>
  <rect width="8.1" height="10.3" x="31.8" y="19.9" fill="#E0B624" transform="rotate(-89.955 35.918 25.02)"></rect>
  <rect width="8.1" height="10.5" x="42.2" y="11.7" fill="#E0B624" transform="rotate(-89.955 46.319 16.888)"></rect>
  <rect width="16.3" height="13.4" x="50.1" y="14.2" fill="#D4D8DB" transform="rotate(-89.955 58.275 20.968)"></rect>
  <path fill="#E8664A" d="M58.3,22.7L58.3,22.7l-3-0.8l-0.9-1.1l0,2.3l0.1,0.7c0,0.2,0.2,0.3,0.4,0.3l0.3,0l0,0.9
					c0,0.1,0,0.1,0.1,0.2l0.3,0.3c0,0,0.1,0.1,0.2,0.1l0.2,0l0,0.3c0,0.1,0.1,0.2,0.2,0.2l2.1,0l2.2,0c0.1,0,0.2-0.1,0.2-0.2l0-0.3
					l0.2,0c0.1,0,0.1,0,0.2-0.1l0.3-0.3c0,0,0.1-0.1,0.1-0.2l0-0.9l0.3,0c0.2,0,0.3-0.1,0.4-0.3l0.1-0.7l0-2.3l-0.9,1.1L58.3,22.7z
					 M56.7,25.8l-0.4,0l0-0.8l0.4,0L56.7,25.8z M57.4,25.8l-0.4,0l0-0.8l0.4,0L57.4,25.8z M58.1,25.8l-0.4,0l0-0.8l0.4,0L58.1,25.8z
					 M58.8,25.8l-0.4,0l0-0.8l0.4,0L58.8,25.8z M59.5,25.8l-0.4,0l0-0.8l0.4,0L59.5,25.8z M60.2,25.8l-0.4,0l0-0.8l0.4,0L60.2,25.8z
					"></path>
  <path fill="#E8664A" d="M62.1,18.2l-0.6-1.5c0-0.1-0.1-0.1-0.1-0.2c0,0,0,0,0,0c-0.1-0.1-0.1-0.1-0.2-0.1
					c-0.2-0.1-0.3-0.1-0.5-0.2c-0.1,0-0.1,0-0.2,0c-0.2,0-0.3-0.1-0.5-0.1c-0.1,0-0.1,0-0.2,0c-0.2,0-0.5-0.1-0.7-0.1
					c-0.1,0-0.1,0-0.2,0c0,0-0.1,0-0.1,0c-0.1,0-0.2,0-0.3,0c-0.1,0-0.2,0-0.2,0l0,0l0,0c0,0,0,0,0,0l-0.1,0c0,0-0.1,0-0.2,0l-0.3,0
					c-0.1,0-0.2,0-0.3,0l-0.2,0c-0.1,0-0.3,0-0.4,0.1c0,0-0.1,0-0.1,0c-0.1,0-0.1,0-0.2,0c-0.1,0-0.1,0-0.2,0
					c-0.2,0-0.3,0.1-0.4,0.1c-0.1,0-0.1,0-0.2,0.1c-0.1,0-0.1,0-0.2,0.1c-0.2,0.1-0.3,0.2-0.4,0.4l-0.6,1.5c0,0.1,0,0.2,0,0.2l0,1.1
					l0,0.6l1.1,1.2l2.8,0.7l0,0l0,0l0,0l0,0l0,0l2.8-0.7l1.1-1.2l0-0.6l0-1.1C62.2,18.4,62.1,18.3,62.1,18.2z M58.6,17.2l2.3,0
					l0,1.3l-2.3,0L58.6,17.2z M55.7,17.2l2.3,0l0,1.3l-2.3,0L55.7,17.2z M59.2,20.6c0,0.2-0.1,0.4-0.2,0.5c0,0-0.1,0.1-0.1,0.1
					c-0.1,0.1-0.3,0.2-0.5,0.3c0,0,0,0-0.1,0c0,0-0.1,0-0.1,0l0,0c-0.5,0-0.9-0.4-0.9-0.9l0,0c0-0.5,0.4-0.9,0.9-0.9l0,0
					c0,0,0.1,0,0.1,0c0,0,0,0,0.1,0c0.2,0,0.4,0.1,0.5,0.3c0,0,0.1,0.1,0.1,0.1C59.1,20.2,59.2,20.4,59.2,20.6
					C59.2,20.5,59.2,20.5,59.2,20.6z"></path>
  <path fill="#E8664A" d="M58.7,20.2C58.7,20.2,58.7,20.2,58.7,20.2c-0.1-0.1-0.1-0.1-0.1-0.1c0,0-0.1,0-0.1-0.1c0,0,0,0-0.1,0
					c-0.1,0-0.1,0-0.2,0l0,0c-0.3,0-0.6,0.3-0.6,0.6c0,0,0,0.1,0,0.1c0,0.3,0.3,0.5,0.6,0.5l0,0l0,0c0,0,0,0,0,0c0,0,0,0,0.1,0
					c0,0,0.1,0,0.1,0c0,0,0,0,0,0c0,0,0,0,0,0c0,0,0.1,0,0.1-0.1c0.1-0.1,0.1-0.2,0.2-0.3c0,0,0-0.1,0-0.1
					C58.8,20.5,58.8,20.4,58.7,20.2C58.7,20.3,58.7,20.2,58.7,20.2z"></path>
  <g>
    <rect width="16.3" height="20.8" x="28.9" y="7.2" fill="#45BBDD" transform="rotate(-112.415 37.003 17.615)"></rect>
    <rect width="8.1" height="10.3" x="29.6" y="18.2" fill="#15A9CB" transform="rotate(-112.415 33.716 23.375)"></rect>
    <rect width="8.1" height="10.5" x="36.1" y="6.7" fill="#15A9CB" transform="rotate(-112.415 40.221 11.885)"></rect>
    <rect width="16.3" height="13.4" x="44.7" y="4.4" fill="#E6E6E8" transform="rotate(-112.415 52.83 11.087)"></rect>
    <path fill="#3B4C56" d="M53.5,12.6L53.5,12.6l-3,0.4l-1.3-0.7l0.9,2.1l0.4,0.6c0.1,0.2,0.3,0.2,0.5,0.1l0.2-0.1l0.4,0.9
					c0,0.1,0.1,0.1,0.1,0.1l0.4,0.2c0.1,0,0.1,0,0.2,0l0.2-0.1l0.1,0.3c0,0.1,0.2,0.2,0.3,0.1l2-0.8l2-0.8c0.1,0,0.2-0.2,0.1-0.3
					l-0.1-0.3l0.2-0.1c0.1,0,0.1-0.1,0.1-0.1l0.2-0.4c0-0.1,0-0.1,0-0.2l-0.4-0.9l0.2-0.1c0.2-0.1,0.3-0.2,0.2-0.4l-0.1-0.6
					l-0.9-2.1l-0.4,1.4L53.5,12.6z M53.2,16.2l-0.3,0.1l-0.3-0.8l0.3-0.1L53.2,16.2z M53.9,15.9l-0.3,0.1l-0.3-0.8l0.3-0.1
					L53.9,15.9z M54.5,15.7l-0.3,0.1L53.9,15l0.3-0.1L54.5,15.7z M55.2,15.4l-0.3,0.1l-0.3-0.8l0.3-0.1L55.2,15.4z M55.8,15.1
					l-0.3,0.1l-0.3-0.8l0.3-0.1L55.8,15.1z M56.5,14.8L56.2,15l-0.3-0.8l0.3-0.1L56.5,14.8z"></path>
    <path fill="#3B4C56" d="M55.3,7.1l-1.2-1.2c0,0-0.1-0.1-0.2-0.1c0,0,0,0-0.1,0c-0.1,0-0.2,0-0.3,0c-0.2,0-0.3,0-0.5,0.1
					c-0.1,0-0.1,0-0.2,0c-0.2,0-0.3,0.1-0.5,0.1c-0.1,0-0.1,0-0.2,0.1C52,6,51.8,6.1,51.6,6.1c-0.1,0-0.1,0-0.1,0c0,0-0.1,0-0.1,0
					c-0.1,0-0.2,0.1-0.3,0.1c-0.1,0-0.2,0.1-0.2,0.1l0,0l0,0c0,0,0,0,0,0l-0.1,0.1c0,0-0.1,0-0.2,0.1l-0.3,0.1
					c-0.1,0-0.1,0.1-0.2,0.1l-0.2,0.1c-0.1,0.1-0.3,0.1-0.4,0.2c0,0-0.1,0-0.1,0.1c-0.1,0-0.1,0.1-0.2,0.1c0,0-0.1,0.1-0.1,0.1
					c-0.1,0.1-0.3,0.2-0.4,0.3c-0.1,0-0.1,0.1-0.1,0.1c0,0-0.1,0.1-0.1,0.1c-0.1,0.1-0.2,0.3-0.2,0.5l0,1.7c0,0.1,0,0.2,0,0.2l0.4,1
					l0.2,0.6l1.5,0.7l2.8-0.4l0,0l0,0l0,0l0,0l0,0l2.3-1.7l0.5-1.6l-0.2-0.6l-0.4-1C55.4,7.2,55.4,7.1,55.3,7.1z M51.7,7.5l2.1-0.9
					l0.5,1.2l-2.1,0.9L51.7,7.5z M49,8.6l2.1-0.9L51.6,9l-2.1,0.9L49,8.6z M53.5,10.4c0.1,0.2,0.1,0.4,0,0.5c0,0.1,0,0.1-0.1,0.2
					c-0.1,0.2-0.2,0.3-0.3,0.4c0,0,0,0-0.1,0c0,0,0,0-0.1,0l0,0c-0.5,0.2-1,0-1.2-0.5l0,0c-0.2-0.5,0-1,0.5-1.2l0,0c0,0,0.1,0,0.1,0
					c0,0,0,0,0.1,0c0.2,0,0.4,0,0.5,0.1c0.1,0,0.1,0,0.2,0.1C53.3,10,53.4,10.2,53.5,10.4C53.5,10.4,53.5,10.4,53.5,10.4z"></path>
    <path fill="#3B4C56" d="M52.9,10.2C52.9,10.2,52.9,10.2,52.9,10.2c-0.1,0-0.1,0-0.2-0.1c0,0-0.1,0-0.1,0c0,0,0,0-0.1,0
					c-0.1,0-0.1,0-0.2,0l0,0c-0.3,0.1-0.4,0.5-0.3,0.7c0,0,0,0.1,0,0.1c0.1,0.2,0.4,0.3,0.7,0.2l0,0l0,0c0,0,0,0,0,0c0,0,0,0,0,0
					c0,0,0.1,0,0.1-0.1c0,0,0,0,0,0c0,0,0,0,0,0c0,0,0-0.1,0-0.1c0-0.1,0.1-0.2,0-0.3c0,0,0-0.1,0-0.1
					C53.1,10.4,53.1,10.3,52.9,10.2C53,10.2,53,10.2,52.9,10.2z"></path>
  </g>
  <g>
    <polygon fill="#D5B79F" points="31.7 54.5 5.1 54.5 5.7 52.4 31 52.4"></polygon>
    <polygon fill="#D5B79F" points="33.5 60.2 3.2 60.2 4.1 57.6 32.7 57.6"></polygon>
    <line x1="5.7" x2="31" y1="52.4" y2="52.4" fill="#D5B79F"></line>
    <polygon fill="#D5B79F" points="33.5 60.2 3.2 60.2 4.1 57.6 32.7 57.6"></polygon>
    <g>
      <polygon fill="#3B4C56" points="10 65 5.3 65 10 45.7 13.1 45.7"></polygon>
      <polygon fill="#465C6A" points="31.5 65 26.7 65 23.7 45.7 26.7 45.7"></polygon>
    </g>
    <g>
      <path fill="#465C6A" d="M18.4,39H4.3v5.6c0,0.3,0.1,0.5,0.3,0.7L6,46.8c0.2,0.2,0.4,0.3,0.7,0.3h1v1.4c0,0.6,0.5,1,1,1h9.6H28
					c0.6,0,1-0.5,1-1v-1.4h1c0.3,0,0.5-0.1,0.7-0.3l1.4-1.4c0.2-0.2,0.3-0.4,0.3-0.7V39H18.4z"></path>
      <path fill="#3B4C56" d="M18.3,39v10.5H28c0.6,0,1-0.5,1-1v-1.4h1c0.3,0,0.5-0.1,0.7-0.3l1.4-1.4c0.2-0.2,0.3-0.4,0.3-0.7V39
					H18.3z"></path>
      <path fill="#E6E6E8" d="M35.5,14.2l-2.9-6.9c-0.3-0.7-0.9-1.3-1.6-1.6c-4.4-1.6-12.7-2-12.7-2s-0.1,0-0.4,0
					C16.2,3.8,9.5,4.2,5.7,5.7C4.9,5.9,4.4,6.5,4.1,7.2l-2.9,6.9C1.1,14.5,1,14.9,1,15.3v20.9l0.5,2.9c0.1,0.8,0.8,1.4,1.6,1.4h30.5
					c0.8,0,1.5-0.6,1.6-1.4l0.5-2.9V15.3C35.8,14.9,35.7,14.5,35.5,14.2z"></path>
      <path fill="#D4D8DB" d="M35.5,14.2l-2.9-6.9c-0.3-0.7-0.9-1.3-1.6-1.6c-4.4-1.6-12.7-2-12.7-2s0,0-0.1,0v36.8h15.3
					c0.8,0,1.5-0.6,1.6-1.4l0.5-2.9V15.3C35.8,14.9,35.7,14.5,35.5,14.2z"></path>
      <polygon fill="#465C6A" points="35.8 25.8 31.6 30.8 18.4 34.2 18.4 26.1 35.8 20.3"></polygon>
      <polygon fill="#465C6A" points="1 25.8 5.1 30.8 18.4 34.2 18.4 26.1 1 20.3"></polygon>
      <path fill="#61C2A6" d="M18.4,3.7L18.4,3.7L18.4,3.7c-0.6,0-8.5,0.4-12.7,2C5,5.9,4.4,6.5,4.1,7.2l-2.9,6.9
						C1.1,14.5,1,14.9,1,15.3v8l4.8,5.6l12.5,3v0l0,0L18.4,3.7L18.4,3.7z"></path>
      <path fill="#40AD8D" d="M35.5,14.2l-2.9-6.9c-0.3-0.7-0.9-1.3-1.6-1.6c-4.3-1.6-12.5-1.9-12.7-2v0h0h0v28.1h0l0,0v0l12.5-3
						l4.8-5.6v-8C35.8,14.9,35.7,14.5,35.5,14.2z"></path>
      <rect width="10.1" height="6" x="19.9" y="9.6" fill="#465C6A"></rect>
      <rect width="10.1" height="6" x="6.8" y="9.6" fill="#465C6A"></rect>
      <rect width="1.6" height="3.8" x="19.2" y="44.7" fill="#E6E6E8"></rect>
      <rect width="1.6" height="3.8" x="22.4" y="44.7" fill="#E6E6E8"></rect>
      <rect width="1.6" height="3.8" x="25.6" y="44.7" fill="#E6E6E8"></rect>
      <rect width="1.6" height="3.8" x="16" y="44.7" fill="#E6E6E8"></rect>
      <rect width="1.6" height="3.8" x="12.8" y="44.7" fill="#E6E6E8"></rect>
      <rect width="1.6" height="3.8" x="9.6" y="44.7" fill="#E6E6E8"></rect>
    </g>
    <g>
      <circle cx="18.3" cy="24.8" r="4.1" fill="#E6E6E8"></circle>
      <circle cx="18.3" cy="24.8" r="2.5" fill="#FAD22C"></circle>
      <path fill="#FFF" d="M18.4,20.7v8.1c2.2,0,4-1.8,4-4C22.4,22.5,20.6,20.7,18.4,20.7z"></path>
      <path fill="#E0B624" d="M18.4,22.2v5.1c1.4,0,2.5-1.1,2.5-2.5C20.9,23.4,19.8,22.3,18.4,22.2z"></path>
    </g>
  </g>
  <g>
    <rect width="5.6" height="7.5" x="45.5" y="39.9" fill="#D5B79F"></rect>
    <rect width="2.9" height="7.5" x="45.5" y="39.9" fill="#C6A28A"></rect>
    <ellipse cx="57.1" cy="32.7" fill="#D5B79F" rx="2.1" ry="1.1" transform="matrix(.06683 -.9978 .9978 .06683 20.72 87.455)"></ellipse>
    <ellipse cx="39.8" cy="32.7" fill="#D5B79F" rx="2.1" ry="1.1" transform="matrix(-.06683 -.9978 .9978 -.06683 9.87 74.533)"></ellipse>
    <ellipse cx="48.5" cy="32.2" fill="#D5B79F" rx="8.6" ry="10.6"></ellipse>
    <path fill="#C6A28A" d="M48.5,21.7v21.2c4.7,0,8.6-4.7,8.6-10.6S53.2,21.7,48.5,21.7z"></path>
    <path fill="#E8664A" d="M63.9,51.4c-0.8-2.2-4.8-4-4.8-4l-8-3l-2.6,1.8l-2.9-1.8l-7.7,3c0,0-4,1.9-4.8,4
				C32.2,53.6,31.9,65,31.9,65h16.5H65C65,65,64.8,53.6,63.9,51.4z"></path>
    <g>
      <path fill="#D95239" d="M45.5,44.4l-7.7,3c0,0-4,1.9-4.8,4C32.2,53.6,31.9,65,31.9,65h16.5V46.3L45.5,44.4z"></path>
      <path fill="#E8664A" d="M65,65c0,0-0.2-11.4-1.1-13.6c-0.8-2.2-4.8-4-4.8-4l-8-3l-2.6,1.8l0,0V65l0,0H65z"></path>
    </g>
    <path fill="#465C6A" d="M57.4,25.3c-1-3-3.9-5.9-8.9-5.9c-5,0-7.9,2.9-8.9,5.9c-0.7,2.1-0.1,5.8,0.3,7.8c0.1,0.3,0.4,0.6,0.7,0.6
			h0c0.3,0,0.6-0.2,0.7-0.6c0.2-1.1,0.5-2.7,0.3-3.9c-0.3-2,0.7-3.5,0.7-3.5c1.7,0.8,3.2,1,4.3,1c0.1,0,1,0.1,1.9,0.1
			c1,0,2.1-0.1,2.2-0.1c1.1,0,2.5-0.3,4-1c0,0,1,1.5,0.7,3.5c-0.2,1.2,0.1,2.8,0.3,3.9c0.1,0.3,0.4,0.6,0.7,0.6
			c0.3,0,0.6-0.2,0.7-0.6C57.5,31.1,58.1,27.4,57.4,25.3z"></path>
    <path fill="#3B4C56" d="M57.4,25.3c-1-3-3.9-5.9-8.9-5.9l0,0v7.4c0,0,0,0,0,0c1,0,2.1-0.1,2.2-0.1c1.1,0,2.5-0.3,4-1
			c0,0,1,1.5,0.7,3.5c-0.2,1.2,0.1,2.8,0.3,3.9c0.1,0.3,0.4,0.6,0.7,0.6c0.3,0,0.6-0.2,0.7-0.6C57.5,31.1,58.1,27.4,57.4,25.3z"></path>
  </g>
</svg>
