<svg xmlns="http://www.w3.org/2000/svg" width="48" height="48" id="coach">
  <g transform="translate(-342.16 -123.404)">
    <circle cx="366.16" cy="147.404" r="24" fill="#3a6c87"></circle>
    <path fill="#fff" d="M351.55 137.904v12h-.972v2h.535a.5.5 0 0 0 .073.254l1.181 2a.5.5 0 0 0 .43.246h.785a.5.5 0 0 0 .096-.008 2 2 0 0 0 .615 1.008h-4.133v1h32v-1h-4.226a2 2 0 0 0 .62-1.027.5.5 0 0 0 .169.027h.705a.5.5 0 0 0 .431-.246l1.182-2a.5.5 0 0 0 .072-.254h.5v-2h-1v-12h-29.062zm4.056 2.436a.5.5 0 0 1 .507.508v6.113a.5.5 0 1 1-1 0v-6.113a.5.5 0 0 1 .493-.508zm3 0a.5.5 0 0 1 .507.508v6.113a.5.5 0 1 1-1 0v-6.113a.5.5 0 0 1 .493-.508zm3 0a.5.5 0 0 1 .507.508v6.113a.5.5 0 1 1-1 0v-6.113a.5.5 0 0 1 .493-.508zm3 0a.5.5 0 0 1 .507.508v6.113a.5.5 0 1 1-1 0v-6.113a.5.5 0 0 1 .493-.508zm3 0a.5.5 0 0 1 .507.508v6.113a.5.5 0 1 1-1 0v-6.113a.5.5 0 0 1 .493-.508zm3 0a.5.5 0 0 1 .507.508v6.113a.5.5 0 1 1-1 0v-6.113a.5.5 0 0 1 .493-.508zm3 0a.5.5 0 0 1 .507.508v6.113a.5.5 0 1 1-1 0v-6.113a.5.5 0 0 1 .493-.508zm3 0a.5.5 0 0 1 .507.508v6.113a.5.5 0 1 1-1 0v-6.113a.5.5 0 0 1 .493-.508zm-24.409 11.564h11.832l-.886 1.5h-.42a.5.5 0 0 0-.168.028 2 2 0 0 0-1.942-1.528 2 2 0 0 0-1.943 1.531.5.5 0 0 0-.182-.03h-.86a.5.5 0 0 0-.08.005 2 2 0 0 0-1.935-1.506 2 2 0 0 0-1.937 1.508.5.5 0 0 0-.094-.008h-.498l-.887-1.5zm12.916 0h2a.5.5 0 0 0 .073.254l1.181 2a.5.5 0 0 0 .43.246h.785a.5.5 0 0 0 .096-.008 2 2 0 0 0 .615 1.008h-8.36a2 2 0 0 0 .622-1.027.5.5 0 0 0 .168.027h.707a.5.5 0 0 0 .43-.246l1.181-2a.5.5 0 0 0 .072-.254zm3.084 0h11.832l-.886 1.5h-.42a.5.5 0 0 0-.168.028 2 2 0 0 0-1.942-1.528 2 2 0 0 0-1.943 1.531.5.5 0 0 0-.182-.03h-.86a.5.5 0 0 0-.08.005 2 2 0 0 0-1.935-1.506 2 2 0 0 0-1.937 1.508.5.5 0 0 0-.094-.008h-.5l-.885-1.5zm-12.584 1.5a.5.5 0 0 1 .5.5.5.5 0 0 1-.5.5.5.5 0 0 1-.5-.5.5.5 0 0 1 .5-.5zm5 0a.5.5 0 0 1 .5.5.5.5 0 0 1-.5.5.5.5 0 0 1-.5-.5.5.5 0 0 1 .5-.5zm11 0a.5.5 0 0 1 .5.5.5.5 0 0 1-.5.5.5.5 0 0 1-.5-.5.5.5 0 0 1 .5-.5zm5 0a.5.5 0 0 1 .5.5.5.5 0 0 1-.5.5.5.5 0 0 1-.5-.5.5.5 0 0 1 .5-.5zm-17.943.967a2 2 0 0 0 .623 1.033h-2.36a2 2 0 0 0 .618-1.006.5.5 0 0 0 .078.006h.86a.5.5 0 0 0 .18-.033zm16 0a2 2 0 0 0 .623 1.033h-2.36a2 2 0 0 0 .618-1.006.5.5 0 0 0 .078.006h.86a.5.5 0 0 0 .18-.033z"></path>
  </g>
</svg>
