<svg xmlns="http://www.w3.org/2000/svg" xmlns:xlink="http://www.w3.org/1999/xlink" width="48" height="48" id="document">
  <defs>
    <linearGradient xlink:href="#a" id="b" x1="868.253" x2="937.656" y1="521.354" y2="588.736" gradientTransform="translate(-1326.968 211.343)scale(1.53785)" gradientUnits="userSpaceOnUse"></linearGradient>
    <linearGradient id="a">
      <stop offset="0" stop-color="#24f3d2"></stop>
      <stop offset=".394" stop-color="#0674f0"></stop>
      <stop offset=".507" stop-color="#6961b5"></stop>
      <stop offset=".813" stop-color="#f34660"></stop>
      <stop offset="1" stop-color="#ee078d"></stop>
    </linearGradient>
  </defs>
  <g transform="translate(0 -1004.362)">
    <rect width="48" height="48" y="1004.362" fill="url(#b)" rx="10.144" ry="10.144"></rect>
    <path fill="#fff" d="M18.5 1015.367a.5.5 0 0 0-.5.5v6.5h-1v-2.627c0-.757-.325-1.39-.805-1.789-.48-.4-1.091-.584-1.695-.584-.604 0-1.215.185-1.695.584-.48.4-.805 1.032-.805 1.79v2.626h-1.5a.5.5 0 0 0-.5.5v15a.5.5 0 0 0 .5.5H18v2.49a.5.5 0 0 0 .5.5h19a.5.5 0 0 0 .5-.5v-20.788a.5.5 0 0 0-.012-.116.5.5 0 0 0-.14-.42l-4.02-4.017a.5.5 0 0 0-.36-.147.5.5 0 0 0-.107.012.5.5 0 0 0-.125-.014H18.5zm.5 1h13.975v3.52a.5.5 0 0 0 .5.5H37v19.97H19v-1.99h6.5a.5.5 0 0 0 .5-.5v-15a.5.5 0 0 0-.5-.5H19v-6zm14.975.71 2.312 2.31h-2.312v-2.31zm-19.475 1.29c.396 0 .785.13 1.055.354.27.224.445.529.445 1.02v5.98c0 .704-.297.838-.5.838s-.5-.134-.5-.838v-4.897a.5.5 0 1 0-1 0v1.543h-1v-2.627c0-.49.175-.795.445-1.02.27-.224.659-.353 1.055-.353zm6.5 1v1h9v-1h-9zm7 3v1h7v-1h-7zm-17 1h3v.994c-1.098 0-2 .902-2 2 0 1.099.9 2 2 2 .55 0 1.053-.224 1.414-.586.07-.07.129-.149.188-.228.753-.062 1.398-.795 1.398-1.826v-2.354h8v14H11v-14zm3 1.994v.36c0 .612.23 1.113.572 1.44a.97.97 0 0 1-.572.2c-.558 0-1-.441-1-1 0-.558.44-1 1-1zm14 .01v1h7v-1h-7zm-10.105 3.613c-.316 0-.47.171-.61.311l-4.035 4.473c.002 0 .002 0-.008.01l-.025.029c-.003 0-.006.01-.008.01a.758.758 0 0 0-.088.12.994.994 0 0 0-.121.485c0 .52.432.947.95.947h3.476c.024 0 .05.01.074.01 1.625 0 2.993.027 5.006 0a.498.498 0 0 0 .494-.5v-3.835a.5.5 0 0 0-.104-.307l-.595-.774a.302.302 0 0 0-.028-.033c-.19-.208-.472-.339-.736-.324a.911.911 0 0 0-.61.29.502.502 0 0 0-.06.08l-.736.9-1.432-1.584c-.005-.01-.011-.013-.017-.02a.984.984 0 0 0-.784-.279h-.003zm-4.678 4.823s.014-.02.021-.027c-.006.01-.009.01-.017.02-.002 0-.003 0-.004.01zm4.781-3.809 1.492 1.65-2.226 2.721h-3.21l3.944-4.37zm3.588.668.414.54v3.165c-1.297.012-2.37.01-3.445 0l3.03-3.705z" color="#000" font-family="sans-serif" font-weight="400" overflow="visible" style="line-height:normal;text-indent:0;text-align:start;text-decoration-line:none;text-decoration-style:solid;text-decoration-color:#000;text-transform:none;block-progression:tb;isolation:auto;mix-blend-mode:normal"></path>
  </g>
</svg>
