<svg xmlns="http://www.w3.org/2000/svg" width="128" height="128" viewBox="0 0 128 128" id="income">
  <polygon fill="#6eb5fa" points="80.447 115.834 47.553 115.834 51.851 103.974 76.149 103.974 80.447 115.834"></polygon>
  <path fill="#91c6fa" d="M41.171,115.834H86.829a2.554,2.554,0,0,1,2.554,2.554V120.7a0,0,0,0,1,0,0H38.617a0,0,0,0,1,0,0v-2.309A2.554,2.554,0,0,1,41.171,115.834Z"></path>
  <path fill="#d4f1ff" d="M120.7,36.141V99.978a4.005,4.005,0,0,1-4,4H11.3a4.005,4.005,0,0,1-4-4V36.141a4,4,0,0,1,4-4H116.7A4,4,0,0,1,120.7,36.141Z"></path>
  <path fill="#91c6fa" d="M120.7,92.1v7.88a4.005,4.005,0,0,1-4,4H11.3a4.005,4.005,0,0,1-4-4V92.1Z"></path>
  <g>
    <rect width="20.898" height="7.088" x="17.204" y="56.035" fill="#f9bc34" rx="2.363"></rect>
    <rect width="20.898" height="7.088" x="17.204" y="48.947" fill="#f9d37d" rx="2.363"></rect>
    <rect width="20.898" height="7.088" x="17.204" y="41.859" fill="#f9bc34" rx="2.363"></rect>
    <g>
      <rect width="20.898" height="7.088" x="17.204" y="77.299" fill="#f9d37d" rx="2.363"></rect>
      <rect width="20.898" height="7.088" x="17.204" y="70.211" fill="#f9bc34" rx="2.363"></rect>
      <rect width="20.898" height="7.088" x="17.204" y="63.123" fill="#f9d37d" rx="2.363"></rect>
    </g>
    <g>
      <rect width="20.898" height="7.088" x="26.566" y="77.299" fill="#f9c041" rx="2.363"></rect>
      <rect width="20.898" height="7.088" x="26.566" y="70.211" fill="#f9d37d" rx="2.363"></rect>
      <rect width="20.898" height="7.088" x="26.566" y="63.123" fill="#f9c041" rx="2.363"></rect>
    </g>
    <g>
      <polygon fill="#fa555d" points="62.541 70.211 50.581 84.387 38.611 70.211 44.601 70.211 44.601 27.302 56.561 27.302 56.561 70.211 62.541 70.211"></polygon>
      <circle cx="50.579" cy="24.576" r="17.273" fill="#f9d37d"></circle>
    </g>
    <g>
      <rect width="8.46" height="17.992" x="67.471" y="60.66" fill="#10d15f"></rect>
      <rect width="8.46" height="29.704" x="82.438" y="48.947" fill="#10d15f"></rect>
      <rect width="8.46" height="39.337" x="97.405" y="39.314" fill="#10d15f"></rect>
      <rect width="48.255" height="5.735" x="62.541" y="78.651" fill="#4892db"></rect>
    </g>
  </g>
  <g>
    <path d="M116.7,31.14H88.59l11.774-11.872c0,.1.216,4.582.2,4.3a1,1,0,0,0,1,.954h.048a1,1,0,0,0,.952-1.046c0-.1-.33-7.01-.309-6.57-.024-.486-.317-.828-1.046-.952l-6.569.31a1,1,0,0,0,.045,2h.048l4-.189L85.773,31.14H67.613a18.273,18.273,0,1,0-34.067,0H11.3a5.006,5.006,0,0,0-5,5V99.98a5.006,5.006,0,0,0,5,5H24.95a1,1,0,1,0,0-2H11.3a3,3,0,0,1-3-3V93.1H119.7v6.88a3,3,0,0,1-3,3c-53.142-.008-29.575-.008-82.63,0a1,1,0,0,0,0,2H50.423l-3.572,9.854h-5.68a3.558,3.558,0,0,0-3.554,3.554V120.7a1,1,0,0,0,1,1H89.383a1,1,0,0,0,1-1v-2.309a3.558,3.558,0,0,0-3.554-3.554h-5.68l-3.572-9.854H116.7a5.006,5.006,0,0,0,5-5V67.44a1,1,0,0,0-2,0V91.1H8.3V36.14a3,3,0,0,1,3-3H34.448A18.377,18.377,0,0,0,43.6,41.457V62.12H38.809a3.325,3.325,0,0,0,.293-1.36V58.4a3.352,3.352,0,0,0-.974-2.363,3.352,3.352,0,0,0,.974-2.363V51.31a3.352,3.352,0,0,0-.974-2.363,3.352,3.352,0,0,0,.974-2.363V44.222a3.367,3.367,0,0,0-3.363-3.363H19.566A3.367,3.367,0,0,0,16.2,44.222v2.362a3.348,3.348,0,0,0,.975,2.363A3.348,3.348,0,0,0,16.2,51.31v2.362a3.348,3.348,0,0,0,.975,2.363A3.348,3.348,0,0,0,16.2,58.4V60.76a3.355,3.355,0,0,0,.973,2.362A3.356,3.356,0,0,0,16.2,65.49v2.36a3.342,3.342,0,0,0,.976,2.36,3.342,3.342,0,0,0-.976,2.36v2.37a3.344,3.344,0,0,0,.976,2.36,3.342,3.342,0,0,0-.976,2.36v2.36a3.374,3.374,0,0,0,3.37,3.37H45.1a3.355,3.355,0,0,0,3.144-2.217l1.571,1.862a1,1,0,0,0,1.53,0l11.96-14.18a1,1,0,0,0-.765-1.645H57.56V41.457a18.379,18.379,0,0,0,9.151-8.317H83.79L63.26,53.84a1,1,0,0,0,1.42,1.408L86.606,33.14H116.7a3,3,0,0,1,3,3v8.09a1,1,0,1,0,2,0V36.14A5.006,5.006,0,0,0,116.7,31.14ZM86.829,116.834a1.556,1.556,0,0,1,1.554,1.554V119.7H39.617v-1.309a1.556,1.556,0,0,1,1.554-1.554Zm-7.808-2H48.978l3.572-9.854h22.9ZM43.6,64.12v5.09H28.93a1.361,1.361,0,0,1-1.36-1.36V65.49A1.366,1.366,0,0,1,28.9,64.123ZM42.442,76.3H28.93a1.361,1.361,0,0,1-1.36-1.36V72.57a1.361,1.361,0,0,1,1.36-1.36h9.216ZM18.2,44.222a1.364,1.364,0,0,1,1.362-1.363H35.739A1.365,1.365,0,0,1,37.1,44.222v2.362a1.364,1.364,0,0,1-1.363,1.363H19.566A1.364,1.364,0,0,1,18.2,46.584Zm0,7.088a1.364,1.364,0,0,1,1.362-1.363H35.739A1.365,1.365,0,0,1,37.1,51.31v2.362a1.364,1.364,0,0,1-1.363,1.363H19.566A1.364,1.364,0,0,1,18.2,53.672Zm0,7.088a1.364,1.364,0,0,1,1.362-1.363H35.739A1.364,1.364,0,0,1,37.1,58.4V60.76a1.363,1.363,0,0,1-1.334,1.36H19.57l-.016,0A1.364,1.364,0,0,1,18.2,60.76Zm0,7.092a1.37,1.37,0,0,1,1.354-1.368h6.311a3.359,3.359,0,0,0-.295,1.367v2.36a3.326,3.326,0,0,0,.294,1.36H19.57a1.366,1.366,0,0,1-1.37-1.36Zm0,7.08a1.366,1.366,0,0,1,1.37-1.36h6.294a3.326,3.326,0,0,0-.294,1.36v2.37a3.326,3.326,0,0,0,.294,1.36H19.57a1.366,1.366,0,0,1-1.37-1.36Zm1.37,10.82a1.371,1.371,0,0,1-1.37-1.37V79.66a1.366,1.366,0,0,1,1.37-1.36h6.294a3.326,3.326,0,0,0-.294,1.36v2.36a3.351,3.351,0,0,0,.3,1.37Zm26.89-1.37a1.367,1.367,0,0,1-1.36,1.37H28.93a1.367,1.367,0,0,1-1.36-1.37V79.66a1.361,1.361,0,0,1,1.36-1.36h15.2l2.33,2.76ZM60.389,71.21,50.58,82.839,40.765,71.21H44.6a1,1,0,0,0,1-1V42.141a17.868,17.868,0,0,0,9.96,0V70.21a1,1,0,0,0,1,1Zm-9.81-30.361A16.273,16.273,0,1,1,66.852,24.576,16.291,16.291,0,0,1,50.579,40.849Z"></path>
    <path d="M120.7 52.35a1 1 0 00-1 1v4.97a1 1 0 102 0V53.35A1 1 0 00120.7 52.35zM67.043 99.038a1 1 0 000-2H60.957a1 1 0 000 2zM53.974 17.45a1.8 1.8 0 011.792 1.8 1 1 0 102 0 3.8 3.8 0 00-3.787-3.8l-2.4-.006v-2.3a1 1 0 10-2 0v2.292l-1.116 0a5.07 5.07 0 000 10.14h1.117v6.139h-2.4a1.789 1.789 0 01-1.788-1.788 1 1 0 00-2 0 3.792 3.792 0 003.788 3.788h2.4v2.29a1 1 0 002 0v-2.29H52.7a5.076 5.076 0 005.07-5.07 4.993 4.993 0 00-.21-1.361.96.96 0 00-.151-.486A5.068 5.068 0 0052.7 23.576H51.579V17.444zm-4.395 6.126H48.462a3.07 3.07 0 010-6.14l1.119 0zm3.117 2a3.07 3.07 0 110 6.139H51.579V25.576zM75.931 59.66H67.472a1 1 0 00-1 1V77.651H62.541a1 1 0 00-1 1v5.736a1 1 0 001 1H110.8a1 1 0 001-1V78.651a1 1 0 00-1-1h-3.931V39.315a1 1 0 00-1-1h-8.46a1 1 0 00-1 1V77.651H91.9v-28.7a1 1 0 00-1-1h-8.46a1 1 0 00-1 1v28.7H76.931V60.66A1 1 0 0075.931 59.66zm-7.459 2h6.459V77.651H68.472zM98.405 40.315h6.46V77.651h-6.46zM83.438 49.947H89.9v27.7h-6.46zm26.358 29.7v3.736H63.541V79.651z"></path>
  </g>
</svg>
