<svg xmlns="http://www.w3.org/2000/svg" id="sale" viewBox="0 0 64 64">
  <path d="m59.77,36.47c1.04-1.28,2.23-2.73,2.23-4.47s-1.18-3.19-2.23-4.47c-.73-.9-1.42-1.74-1.64-2.54-.23-.85-.04-2.01.14-3.14.27-1.68.54-3.42-.29-4.86-.85-1.47-2.5-2.1-4.11-2.71-1.1-.42-2.14-.82-2.75-1.42-.6-.6-1-1.65-1.42-2.75-.61-1.6-1.24-3.26-2.71-4.11-1.44-.83-3.18-.56-4.86-.29-1.12.18-2.29.37-3.14.14-.79-.21-1.64-.9-2.54-1.63-1.28-1.04-2.73-2.23-4.47-2.23s-3.19,1.18-4.47,2.23c-.9.73-1.74,1.42-2.54,1.64-.85.23-2.01.04-3.14-.14-1.68-.27-3.42-.54-4.86.29-1.47.85-2.1,2.51-2.71,4.11-.42,1.1-.82,2.14-1.42,2.75-.6.6-1.65,1-2.75,1.42-1.6.61-3.26,1.24-4.11,2.71-.83,1.44-.56,3.18-.29,4.86.18,1.13.37,2.29.14,3.14-.21.79-.9,1.64-1.64,2.54-1.04,1.28-2.23,2.73-2.23,4.47s1.18,3.19,2.23,4.47c.73.9,1.42,1.74,1.64,2.54.23.85.04,2.01-.14,3.14-.27,1.68-.54,3.42.29,4.86.85,1.47,2.51,2.1,4.11,2.71,1.1.42,2.14.82,2.75,1.42.6.6,1,1.65,1.42,2.75.61,1.6,1.24,3.26,2.71,4.11,1.44.83,3.18.56,4.86.29,1.13-.18,2.29-.37,3.14-.14.79.21,1.64.9,2.54,1.64,1.28,1.04,2.73,2.23,4.47,2.23s3.19-1.18,4.47-2.23c.9-.73,1.74-1.42,2.54-1.63.85-.23,2.02-.04,3.14.14,1.68.27,3.41.54,4.86-.29,1.47-.85,2.1-2.51,2.71-4.11.42-1.1.82-2.15,1.42-2.75s1.65-1,2.75-1.42c1.6-.61,3.26-1.24,4.11-2.7.84-1.44.56-3.18.29-4.86-.18-1.13-.37-2.29-.14-3.14.21-.79.9-1.64,1.64-2.54Z" style="fill:#0a87c6"></path>
  <circle cx="32" cy="32" r="20" style="fill:#03598c"></circle>
  <circle cx="25.5" cy="25.5" r="2.5" style="fill:#fff"></circle>
  <circle cx="38.5" cy="38.5" r="2.5" style="fill:#fff"></circle>
  <path d="m40.39,23.61h0c-.82-.82-2.14-.82-2.96,0l-13.81,13.81c-.82.82-.82,2.14,0,2.96h0c.82.82,2.14.82,2.96,0l13.81-13.81c.82-.82.82-2.14,0-2.96Z" style="fill:#fff"></path>
</svg>
